<?xml version="1.0"?>
<svg version="1.1" xmlns="http://www.w3.org/2000/svg" width="400px" height="200px" style="border: dashed 2px #aaa"><path fill="#ed2e2b" d="M51.04248046875,104.93896484375q0-0.80322265625,0.316162109375-1.187744140625t1.153564453125-0.384521484375q0.49560546875,0,0.931396484375,0.205078125t0.435791015625,0.87158203125q0.068359375,0.97412109375,0.068359375,2.042236328125t0.18798828125,2.025146484375q0.42724609375-0.70068359375,0.965576171875-1.4013671875t1.187744140625-1.24755859375t1.41845703125-0.880126953125t1.6748046875-0.333251953125q1.23046875,0,2.0849609375,0.5126953125t1.409912109375,1.3330078125t0.80322265625,1.854248046875t0.247802734375,2.076416015625q0,1.6064453125-0.487060546875,2.623291015625t-1.290283203125,1.597900390625t-1.820068359375,0.7861328125t-2.042236328125,0.205078125q-0.90576171875,0-1.69189453125-0.350341796875t-1.09375-1.324462890625q0-0.2734375,0.401611328125-0.341796875t0.572509765625-0.068359375q0.56396484375,0,0.83740234375,0.3076171875q0.205078125,0.2392578125,0.452880859375,0.487060546875t0.521240234375,0.247802734375q0.52978515625,0,1.11083984375-0.299072265625t1.068115234375-0.7861328125t0.8203125-1.153564453125t0.333251953125-1.3671875q0-0.59814453125-0.1025390625-1.48681640625t-0.350341796875-1.708984375t-0.68359375-1.41845703125t-1.102294921875-0.59814453125q-1.00830078125,0-1.820068359375,0.9228515625t-1.35009765625,2.2216796875t-0.83740234375,2.7001953125t-0.299072265625,2.34130859375t0.11962890625,2.37548828125t0.247802734375,2.982177734375t0.247802734375,2.982177734375t0.11962890625,2.37548828125q0,0.2392578125-0.196533203125,0.384521484375t-0.469970703125,0.230712890625t-0.555419921875,0.1025390625t-0.418701171875,0.01708984375q-0.46142578125,0-0.965576171875-0.1025390625t-0.692138671875-0.63232421875q-0.2392578125-0.83740234375-0.4443359375-2.384033203125t-0.367431640625-3.41796875t-0.281982421875-3.9306640625t-0.205078125-3.973388671875t-0.128173828125-3.50341796875t-0.042724609375-2.529296875z M67.426000976562,112.98828125l0-1.6064453125q0-0.87158203125,0.042724609375-2.469482421875t0.111083984375-3.50341796875t0.18798828125-3.973388671875t0.2734375-3.905029296875t0.367431640625-3.289794921875t0.487060546875-2.1533203125q0.1708984375-0.39306640625,0.56396484375-0.49560546875t0.76904296875-0.1025390625q0.59814453125,0,1.051025390625,0.264892578125t0.452880859375,0.965576171875l-0.3076171875,0.341796875q-0.59814453125,3.94775390625-0.76904296875,7.9296875t-0.2392578125,7.9638671875q0.42724609375-0.66650390625,0.965576171875-1.307373046875t1.1962890625-1.136474609375t1.41845703125-0.794677734375t1.666259765625-0.299072265625q1.162109375,0,1.922607421875,0.70068359375t1.256103515625,1.820068359375t0.73486328125,2.503662109375t0.367431640625,2.7685546875t0.179443359375,2.623291015625t0.15380859375,2.059326171875q-0.32470703125,0.4443359375-0.95703125,0.4443359375l-0.05126953125,0q-0.2734375,0-0.59814453125-0.068359375t-0.42724609375-0.341796875l0.0341796875,0.0341796875q-0.2392578125-0.52978515625-0.32470703125-1.529541015625t-0.13671875-2.20458984375t-0.179443359375-2.469482421875t-0.384521484375-2.2900390625t-0.751953125-1.69189453125t-1.3330078125-0.70068359375l-0.1025390625,0q-1.00830078125,0-1.69189453125,0.615234375q-0.7177734375,0.6494140625-1.162109375,1.708984375t-0.68359375,2.3583984375t-0.367431640625,2.503662109375t-0.196533203125,2.1875t-0.1708984375,1.444091796875q-0.1025390625,0.39306640625-0.606689453125,0.521240234375t-0.863037109375,0.128173828125q-0.83740234375,0-1.3671875-0.478515625q-0.39306640625-0.93994140625-0.46142578125-2.34130859375t-0.068359375-2.734375z M83.074658203125,109.62158203125q0-0.341796875,0.076904296875-0.90576171875t0.179443359375-1.119384765625t0.2392578125-1.033935546875t0.32470703125-0.615234375q0.13671875-0.13671875,0.469970703125-0.2734375t0.70068359375-0.196533203125t0.68359375,0.05126953125t0.384521484375,0.452880859375q-0.2392578125,0.3076171875-0.435791015625,1.051025390625t-0.299072265625,1.649169921875q-0.08544921875,0.76904296875-0.08544921875,1.58935546875l0,0.29052734375q0.01708984375,0.95703125,0.1708984375,1.76025390625t0.469970703125,1.324462890625t0.880126953125,0.521240234375q1.1962890625,0,2.1875-1.102294921875t1.76025390625-2.691650390625t1.35009765625-3.375244140625t0.9912109375-3.118896484375q0.1025390625-0.39306640625,0.487060546875-0.52978515625t0.828857421875-0.093994140625t0.794677734375,0.213623046875t0.418701171875,0.41015625q-0.341796875,2.87109375-0.538330078125,5.7421875t-0.196533203125,5.7763671875q0,0.56396484375,0.05126953125,1.033935546875t-0.05126953125,0.80322265625t-0.452880859375,0.52978515625t-1.119384765625,0.196533203125q-0.1708984375,0-0.435791015625-0.0341796875t-0.546875-0.111083984375t-0.478515625-0.230712890625t-0.196533203125-0.35888671875q0-1.2646484375,0.093994140625-2.59765625t0.264892578125-2.58056640625q-0.46142578125,0.66650390625-1.016845703125,1.324462890625t-1.221923828125,1.187744140625t-1.435546875,0.845947265625t-1.65771484375,0.316162109375q-1.2646484375,0-1.990966796875-0.59814453125t-1.09375-1.495361328125t-0.46142578125-1.956787109375t-0.093994140625-2.05078125z M105.8099609375,118.06396484375l0.35888671875-0.42724609375q-0.068359375-2.87109375-0.15380859375-5.72509765625t-0.08544921875-5.673828125q0-3.50341796875,0.418701171875-6.776123046875t0.828857421875-6.707763671875q0.0341796875-0.205078125,0.196533203125-0.333251953125t0.401611328125-0.213623046875t0.487060546875-0.11962890625t0.452880859375-0.0341796875q0.2734375,0,0.68359375,0.1025390625t0.8203125,0.59814453125q0,0.1708984375,0.025634765625,0.299072265625t0.025634765625,0.299072265625q0,1.298828125-0.350341796875,2.78564453125t-0.469970703125,2.85400390625q-0.13671875,1.6748046875-0.18798828125,3.3154296875t-0.05126953125,3.33251953125l0.0341796875,1.50390625q0.341796875-0.42724609375,0.97412109375-1.09375t1.3671875-1.290283203125t1.4697265625-1.068115234375t1.3330078125-0.4443359375q0.90576171875,0,1.256103515625,0.5126953125t0.350341796875,1.35009765625q0,0.76904296875-0.333251953125,1.6064453125t-0.87158203125,1.632080078125t-1.221923828125,1.427001953125t-1.35009765625,0.93994140625q0.90576171875,1.1279296875,1.854248046875,2.1533203125t2.076416015625,1.93115234375l0,0.39306640625q-0.0341796875,0.1708984375-0.213623046875,0.25634765625t-0.39306640625,0.13671875t-0.418701171875,0.076904296875t-0.341796875,0.025634765625q-0.83740234375,0-1.614990234375-0.49560546875t-1.45263671875-1.21337890625t-1.273193359375-1.52099609375t-1.09375-1.4013671875q0.1025390625,1.96533203125,0.230712890625,3.922119140625t0.128173828125,3.922119140625q0,0.2392578125-0.213623046875,0.401611328125t-0.49560546875,0.247802734375t-0.572509765625,0.11962890625t-0.478515625,0.0341796875q-1.00830078125,0-1.427001953125-0.367431640625t-0.709228515625-1.273193359375z M109.31337890625,110.0146484375q0.42724609375,0,1.016845703125-0.367431640625t1.221923828125-0.914306640625t1.17919921875-1.153564453125t0.880126953125-1.153564453125t0.333251953125-0.880126953125t-0.46142578125-0.299072265625q-0.1708984375,0-0.70068359375,0.49560546875t-1.17919921875,1.21337890625t-1.298828125,1.55517578125t-0.9912109375,1.50390625z M119.64709472656,110.71533203125q0-1.572265625,0.367431640625-3.084716796875t0.623779296875-3.016357421875q0.068359375-0.39306640625,0.538330078125-0.487060546875t0.794677734375-0.093994140625q0.56396484375,0,0.90576171875,0.1708984375q0.13671875,0.068359375,0.25634765625,0.15380859375t0.11962890625,0.22216796875q0,1.4697265625-0.350341796875,2.87109375t-0.350341796875,2.9736328125q0,0.52978515625,0.076904296875,0.999755859375t0.145263671875,0.931396484375l0.1025390625,0.49560546875q0,0.13671875,0.01708984375,0.2392578125t0.05126953125,0.2392578125q0,0.3076171875-0.435791015625,0.418701171875t-0.760498046875,0.111083984375q-0.49560546875,0-0.914306640625-0.196533203125t-0.657958984375-0.675048828125l-0.2392578125-0.49560546875q-0.205078125-0.39306640625-0.205078125-0.880126953125t-0.08544921875-0.897216796875z M120.74084472656,100.42724609375l0-0.32470703125q0-0.80322265625,0.401611328125-1.435546875t1.204833984375-0.63232421875q0.1025390625,0,0.196533203125,0.01708984375t0.196533203125,0.01708984375q0.205078125,0.0341796875,0.538330078125,0.162353515625t0.333251953125,0.401611328125l0,0.0341796875q-0.068359375,0.13671875-0.08544921875,0.281982421875t-0.08544921875,0.247802734375l0.0341796875-0.0341796875q-0.205078125,0.52978515625-0.333251953125,0.8544921875t-0.281982421875,0.521240234375t-0.384521484375,0.281982421875t-0.657958984375,0.08544921875q-0.068359375,0-0.2392578125-0.01708984375t-0.367431640625-0.068359375t-0.333251953125-0.13671875t-0.13671875-0.25634765625z M127.10971679688,111.826171875q0-1.1962890625,0.264892578125-2.81982421875t0.897216796875-3.076171875t1.666259765625-2.469482421875t2.606201171875-1.016845703125q1.4697265625,0,2.20458984375,0.845947265625t0.73486328125,2.281494140625q0,0.93994140625-0.350341796875,2.059326171875t-0.999755859375,2.119140625t-1.5380859375,1.666259765625t-1.982421875,0.66650390625l-0.4443359375-0.0341796875q0,0.46142578125,0.13671875,1.239013671875t0.401611328125,1.546630859375t0.68359375,1.35009765625t1.016845703125,0.5810546875q0.87158203125,0,1.6748046875-0.70068359375t1.52099609375-1.55517578125t1.3330078125-1.55517578125t1.1279296875-0.70068359375q0.2734375,0,0.56396484375,0.08544921875t0.32470703125,0.478515625q0,0.2392578125-0.128173828125,0.39306640625t-0.230712890625,0.341796875q-0.52978515625,0.90576171875-1.153564453125,1.72607421875t-1.409912109375,1.48681640625t-1.717529296875,1.051025390625t-2.059326171875,0.384521484375q-1.4697265625,0-2.44384765625-0.521240234375t-1.572265625-1.4013671875t-0.863037109375-2.03369140625t-0.264892578125-2.418212890625z M130.16879882813,110.52734375l0.478515625,0.42724609375q0.341796875,0.3076171875,0.68359375,0.13671875t0.615234375-0.623779296875t0.504150390625-1.119384765625t0.41015625-1.3671875t0.264892578125-1.3671875t0.08544921875-1.11083984375l0-0.5810546875t-0.05126953125-0.615234375t-0.179443359375-0.487060546875t-0.401611328125-0.247802734375q-0.08544921875-0.01708984375-0.15380859375-0.01708984375q-0.5810546875,0-0.9912109375,0.73486328125q-0.4443359375,0.8203125-0.7177734375,1.990966796875t-0.39306640625,2.401123046875t-0.15380859375,1.845703125z M141.40827636719,111.2109375l0-0.49560546875q0-0.615234375,0.0341796875-1.162109375q0.0341796875-0.76904296875,0.0341796875-1.2646484375q0-0.2734375,0.0341796875-0.623779296875t0.1708984375-0.555419921875q0.1708984375-0.1708984375,0.401611328125-0.350341796875t0.504150390625-0.179443359375q0.87158203125,0,1.3671875,0.196533203125t0.52978515625,0.811767578125l0.068359375,0.52978515625q0.3076171875-0.73486328125,0.8203125-1.820068359375t1.187744140625-2.06787109375t1.52099609375-1.6748046875t1.785888671875-0.692138671875q0.87158203125,0,1.435546875,0.8203125t0.897216796875,2.093505859375t0.469970703125,2.8369140625t0.18798828125,3.067626953125t0.068359375,2.742919921875t0.11962890625,1.871337890625q0.068359375,0.52978515625,0.230712890625,1.119384765625t0.162353515625,1.085205078125q0,0.13671875-0.196533203125,0.264892578125t-0.418701171875,0.213623046875t-0.452880859375,0.13671875t-0.333251953125,0.05126953125q-0.66650390625,0-0.948486328125-0.999755859375t-0.350341796875-2.503662109375t-0.068359375-3.255615234375t-0.11962890625-3.255615234375t-0.487060546875-2.503662109375t-1.170654296875-1.033935546875q-0.73486328125,0-1.52099609375,0.948486328125t-1.35009765625,2.520751953125q-0.546875,1.572265625-0.751953125,3.57177734375q-0.068359375,0.63232421875-0.068359375,1.2646484375q0,1.38427734375,0.29052734375,2.7685546875q0.0341796875,0.2392578125-0.196533203125,0.35888671875t-0.572509765625,0.18798828125t-0.692138671875,0.08544921875t-0.538330078125,0.01708984375q-0.66650390625,0-1.068115234375-0.469970703125t-0.623779296875-1.204833984375t-0.299072265625-1.649169921875t-0.093994140625-1.802978515625z M163.59670410156,110.92041015625q0-1.3330078125,0.281982421875-2.418212890625t0.897216796875-1.837158203125t1.614990234375-1.170654296875t2.435302734375-0.418701171875q0.80322265625,0,1.640625,0.213623046875t1.435546875,0.794677734375q0-0.341796875,0.068359375-1.409912109375t0.1708984375-2.486572265625t0.213623046875-2.9736328125t0.196533203125-2.88818359375t0.15380859375-2.23876953125t0.1025390625-1.025390625q0.1708984375-0.49560546875,0.63232421875-0.589599609375t0.87158203125-0.093994140625q1.07666015625,0,1.324462890625,0.341796875t0.247802734375,1.3671875q0,3.74267578125-0.333251953125,7.451171875t-0.333251953125,7.451171875q0,2.40966796875,0.093994140625,4.844970703125t0.675048828125,4.793701171875l0.18798828125,0.1708984375l0.1025390625,0.3076171875l-0.25634765625,0.39306640625q-0.6494140625,0.41015625-1.50390625,0.41015625l-0.068359375,0q-0.87158203125,0-1.6064453125-0.41015625q-0.2734375-0.1708984375-0.452880859375-1.016845703125t-0.281982421875-1.86279296875t-0.15380859375-1.956787109375t-0.08544921875-1.3330078125q-0.59814453125,1.3671875-1.632080078125,2.349853515625t-2.606201171875,0.982666015625q-1.23046875,0-2.0166015625-0.52978515625t-1.221923828125-1.35009765625t-0.615234375-1.837158203125t-0.179443359375-2.025146484375z M165.66457519531,111.02294921875q0,0.39306640625,0.093994140625,1.162109375t0.299072265625,1.5380859375t0.572509765625,1.3671875t0.965576171875,0.59814453125q0.80322265625-0.39306640625,1.45263671875-1.307373046875t1.119384765625-2.0166015625t0.73486328125-2.20458984375t0.264892578125-1.905517578125q0-1.00830078125-0.73486328125-1.6748046875t-1.76025390625-0.66650390625q-0.3076171875,0-0.623779296875,0.11962890625t-0.589599609375,0.2734375q-0.63232421875,0.59814453125-0.982666015625,1.085205078125t-0.52978515625,1.00830078125t-0.230712890625,1.153564453125t-0.05126953125,1.4697265625z M179.77514648438,111.826171875q0-1.1962890625,0.264892578125-2.81982421875t0.897216796875-3.076171875t1.666259765625-2.469482421875t2.606201171875-1.016845703125q1.4697265625,0,2.20458984375,0.845947265625t0.73486328125,2.281494140625q0,0.93994140625-0.350341796875,2.059326171875t-0.999755859375,2.119140625t-1.5380859375,1.666259765625t-1.982421875,0.66650390625l-0.4443359375-0.0341796875q0,0.46142578125,0.13671875,1.239013671875t0.401611328125,1.546630859375t0.68359375,1.35009765625t1.016845703125,0.5810546875q0.87158203125,0,1.6748046875-0.70068359375t1.52099609375-1.55517578125t1.3330078125-1.55517578125t1.1279296875-0.70068359375q0.2734375,0,0.56396484375,0.08544921875t0.32470703125,0.478515625q0,0.2392578125-0.128173828125,0.39306640625t-0.230712890625,0.341796875q-0.52978515625,0.90576171875-1.153564453125,1.72607421875t-1.409912109375,1.48681640625t-1.717529296875,1.051025390625t-2.059326171875,0.384521484375q-1.4697265625,0-2.44384765625-0.521240234375t-1.572265625-1.4013671875t-0.863037109375-2.03369140625t-0.264892578125-2.418212890625z M182.83422851563,110.52734375l0.478515625,0.42724609375q0.341796875,0.3076171875,0.68359375,0.13671875t0.615234375-0.623779296875t0.504150390625-1.119384765625t0.41015625-1.3671875t0.264892578125-1.3671875t0.08544921875-1.11083984375l0-0.5810546875t-0.05126953125-0.615234375t-0.179443359375-0.487060546875t-0.401611328125-0.247802734375q-0.08544921875-0.01708984375-0.15380859375-0.01708984375q-0.5810546875,0-0.9912109375,0.73486328125q-0.4443359375,0.8203125-0.7177734375,1.990966796875t-0.39306640625,2.401123046875t-0.15380859375,1.845703125z M194.05661621094,104.93896484375q0-0.80322265625,0.316162109375-1.187744140625t1.153564453125-0.384521484375q0.49560546875,0,0.931396484375,0.205078125t0.435791015625,0.87158203125q0.068359375,0.97412109375,0.068359375,2.042236328125t0.18798828125,2.025146484375q0.42724609375-0.70068359375,0.965576171875-1.4013671875t1.187744140625-1.24755859375t1.41845703125-0.880126953125t1.6748046875-0.333251953125q1.23046875,0,2.0849609375,0.5126953125t1.409912109375,1.3330078125t0.80322265625,1.854248046875t0.247802734375,2.076416015625q0,1.6064453125-0.487060546875,2.623291015625t-1.290283203125,1.597900390625t-1.820068359375,0.7861328125t-2.042236328125,0.205078125q-0.90576171875,0-1.69189453125-0.350341796875t-1.09375-1.324462890625q0-0.2734375,0.401611328125-0.341796875t0.572509765625-0.068359375q0.56396484375,0,0.83740234375,0.3076171875q0.205078125,0.2392578125,0.452880859375,0.487060546875t0.521240234375,0.247802734375q0.52978515625,0,1.11083984375-0.299072265625t1.068115234375-0.7861328125t0.8203125-1.153564453125t0.333251953125-1.3671875q0-0.59814453125-0.1025390625-1.48681640625t-0.350341796875-1.708984375t-0.68359375-1.41845703125t-1.102294921875-0.59814453125q-1.00830078125,0-1.820068359375,0.9228515625t-1.35009765625,2.2216796875t-0.83740234375,2.7001953125t-0.299072265625,2.34130859375t0.11962890625,2.37548828125t0.247802734375,2.982177734375t0.247802734375,2.982177734375t0.11962890625,2.37548828125q0,0.2392578125-0.196533203125,0.384521484375t-0.469970703125,0.230712890625t-0.555419921875,0.1025390625t-0.418701171875,0.01708984375q-0.46142578125,0-0.965576171875-0.1025390625t-0.692138671875-0.63232421875q-0.2392578125-0.83740234375-0.4443359375-2.384033203125t-0.367431640625-3.41796875t-0.281982421875-3.9306640625t-0.205078125-3.973388671875t-0.128173828125-3.50341796875t-0.042724609375-2.529296875z"/><path fill="#" d=""/></svg>
